<svg xmlns="http://www.w3.org/2000/svg" width="37" height="37" fill="none">
  <path fill="#004059" d="M30.8837 5.58558c.5509 5.76842 0 12.20592-3.0532 17.25542-4.4782 7.41-14.3046 8.9518-22.25856 8.1331-.77468-7.7051.58825-17.1972 7.42776-21.86846C18.087 5.6313 24.9016 5.01206 30.8878 5.58558zm-5.8205.9808c-5.0085.19117-10.7336 1.88679-14.1016 5.78092-2.93719 3.3953-4.22558 8.37-4.412 12.7877l1.39608-3.6655C10.6923 15.1317 15.0918 10.7223 21.4052 7.97108l3.6539-1.40055zm1.4251.85612c-5.8743 1.43379-11.3385 4.6048-14.8432 9.6085-1.6239 2.3231-3.64141 6.3211-4.17996 9.0973-.029.1454-.18642.4696.07871.4364 1.8145-3.2458 3.97695-6.3835 6.47915-9.1431.6172-.6815 2.9661-3.1959 3.5875-3.5491.116-.0665.2362-.1704.3853-.1413l.6587.6192c-4.5901 4.1726-8.5629 9.168-11.24736 14.7868C16.7364 24.5698 24.4998 16.7816 29.0568 7.4225c-3.4965 1.57093-6.6283 3.8982-9.6152 6.2837l-.638-.7854 3.0863-2.4728 4.6025-3.0255zM19.3877 24.869c5.0665-3.2998 8.2357-9.0931 9.6649-14.87399l-3.0159 4.61719C21.8112 20.5012 16.3222 25.5049 9.97146 29c-.03315.266.28584.1081.43494.079 2.6513-.5153 5.5346-2.1071 7.9001-3.3705.2237-.0207.6629.6525.6339.7814-.1119.4987-6.5289 3.3704-7.5439 3.3704.0995.2618.8369.1538 1.0647.1413 10.2987-.7148 16.7364-7.1731 17.4489-17.5006.0166-.2327.1243-.9725-.1408-1.068-1.5908 5.6894-4.9132 11.1628-9.8886 14.4252l-.4888-.9767z"></path>
  <path fill="#004059" d="m26.5587 26.8555.7788.7813c-4.1012 4.052-9.9921 5.4858-15.593 5.9263-.9238.0707-1.92221-.0706-2.84603 0-2.31575.187-4.08052 1.2551-5.55531 2.9964l-.77883-.7813c1.11852-1.2551 2.49804-2.3481 4.12611-2.8592 1.83107-.5736 3.86516-.3325 5.76656-.4988 5.05-.4446 10.4396-1.8992 14.1017-5.5689zM35.6933 2.57666l.754.75638c-1.3671 1.28418-2.3655 2.47692-2.7715 4.37202-.3107 1.45458-.0994 2.66394-.2112 4.07694-.4226 5.3778-1.7482 10.9176-5.3399 15.0694l-.7706-.7647c2.8833-3.4037 4.2835-7.7882 4.8138-12.181.4308-3.5866-.2817-6.86143 2.0962-9.8994.1574-.19949 1.3298-1.41302 1.4334-1.42964zM16.3677 4.71289l.2941.99326C11.2556 7.26047 7.16263 11.6242 5.5387 16.9812l-.97766-.1372C5.98611 11.0964 10.6259 6.25058 16.3677 4.71289M17.6685 5.27386l-.2941-.99326c1.8766-.52365 3.8237-.95171 5.7707-1.14288 3.0242-.29507 5.9903.33663 8.5422-1.72055C32.1969 1.00573 32.607.403124 33.1331 0l.754.652479C32.6443 2.44368 30.2954 3.7902 28.1288 3.98968c-.6504.05818-1.3381-.04987-1.9885 0-2.8585.23689-5.6962.51118-8.4676 1.28003zM5.11207 18.0077l-.98181 5.918c-.16156 1.9159.07042 4.1019-.50127 5.9263-.50955 1.6375-1.59908 3.0172-2.850165 4.1393L0 33.21c1.73578-1.4795 2.79631-3.2499 2.98688-5.5731.07457-.9267-.07043-1.9283 0-2.8551.18227-2.3065.55096-4.6089 1.12265-6.8489l.99839.0706zM19.9481 15.7864l-4.2124 4.2258.7968.7993 4.2123-4.2258zM23.231 12.4958l-.7968.7994.7968.7993.7968-.7993zM21.658 14.0679l-.7968.7993.7968.7993.7967-.7993zM14.8226 20.927l-.7967.7993.7968.7993.7967-.7993zM13.2567 22.4961l-.7967.7993.7967.7993.7968-.7993z"></path>
</svg>