<svg width="42" height="39" viewBox="0 0 42 39" fill="none" xmlns="http://www.w3.org/2000/svg">
<rect width="42" height="39" fill="#F5F5F5"/>
<g id="Post Acute Care">
<rect width="1052" height="1949" transform="translate(-76 -659)" fill="white"/>
<g id="Group">
<g id="Group_2">
<path id="Vector" d="M30.7493 2.69008C30.915 2.78567 32.2531 2.73995 32.8538 2.93528C34.6683 3.52126 36.1182 5.65741 36.0685 7.57329C39.1755 8.20914 40.671 11.75 39.2874 14.5469C42.3654 16.4337 42.0381 20.6894 39.3081 22.7673C41.019 25.9134 39.6064 29.6121 36.0768 30.4724C36.0064 32.4465 34.5316 34.4662 32.626 35.0356C32.133 35.1811 31.2672 35.152 30.886 35.4013C30.6541 35.5551 30.2854 36.3447 29.9084 36.6897C27.0996 39.2829 22.348 37.6663 21.6769 33.9177V4.2818C22.3687 0.4916 27.1991 -1.12505 29.9871 1.59707C30.2066 1.80903 30.6831 2.65683 30.7493 2.69424V2.69008ZM22.6338 4.26517V13.2586C23.2221 12.8097 23.7731 12.3443 24.5022 12.1323C24.9082 12.016 25.9687 11.6752 26.0391 12.3651C26.093 13.1256 25.02 12.9427 24.4152 13.1755C23.4168 13.562 22.7291 14.5469 22.6256 15.5984C22.0663 21.3044 23.0481 27.9414 22.6463 33.7431C23.3671 37.2798 27.8205 38.0736 29.9042 35.2143C29.9622 34.8652 29.8338 35.0273 29.6805 34.9608C28.9473 34.6366 26.9795 33.7348 26.9919 32.7789C27.0126 31.449 28.6449 33.3608 28.852 33.5145C32.2241 35.9915 36.7976 31.7898 34.399 28.1118C33.5042 26.7404 32.2531 26.4038 30.7245 26.2043C30.4759 25.157 31.6152 25.3274 32.336 25.4811C34.0055 25.8344 35.8573 27.6755 35.8821 29.4625C40.3893 28.3279 39.9419 22.3476 35.4637 21.533L35.4098 20.972C35.9898 19.9704 38.3967 22.0109 38.6246 21.932C44.5652 17.0322 35.008 10.5572 32.6094 17.9215C31.147 18.4161 31.9383 16.654 32.3525 15.9599C33.5664 13.9402 36.1638 13.1921 38.3636 13.8903C39.6644 12.2944 38.1026 8.80344 36.1141 8.55824C35.762 8.51252 35.9318 8.60811 35.8614 8.78681C34.9624 11.0684 33.4669 12.8056 30.7742 12.2986L30.7203 11.6544C32.2366 11.3967 33.2805 11.2222 34.2582 9.93385C36.8349 6.53015 33.0941 2.27033 29.3533 4.04076C29.0384 4.19037 27.4559 5.53273 27.4683 4.42725C27.4766 3.76231 29.2248 3.09736 29.7385 2.80645C27.924 0.109256 23.1517 1.12745 22.6256 4.26517H22.6338Z" fill="#004059"/>
<path id="Vector_2" d="M26.6605 38.19C26.0846 38.19 25.5005 38.0944 24.9205 37.8991C23.077 37.2757 21.7804 35.8004 21.449 33.9551V4.28186C21.7887 2.37845 23.1558 0.857388 25.0117 0.263091C26.8676 -0.335361 28.7939 0.10101 30.1486 1.4309C30.2853 1.56389 30.4717 1.85065 30.6996 2.21222C30.7741 2.33274 30.8404 2.43664 30.8818 2.49482C30.9896 2.5156 31.2423 2.52807 31.4535 2.54053C31.9424 2.56547 32.5472 2.59872 32.92 2.71924C34.7428 3.30522 36.2508 5.41643 36.2963 7.39465C37.6924 7.73959 38.8523 8.68298 39.4986 10.0087C40.1821 11.4051 40.207 13.055 39.5815 14.468C40.874 15.3325 41.6238 16.654 41.7025 18.2125C41.7895 19.9497 40.9858 21.7076 39.6022 22.838C40.4059 24.4256 40.4846 26.1877 39.8134 27.7088C39.1672 29.1758 37.9202 30.219 36.2963 30.6636C36.143 32.7 34.5895 34.699 32.6881 35.2642C32.4726 35.3307 32.2116 35.3598 31.9382 35.3931C31.5902 35.4346 31.1925 35.4803 31.0103 35.6009C30.9398 35.6466 30.7783 35.9001 30.6581 36.0788C30.48 36.3572 30.277 36.6689 30.0616 36.8643C29.1129 37.7412 27.9115 38.1983 26.6522 38.1983L26.6605 38.19ZM26.6522 0.466731C26.1592 0.466731 25.6538 0.545694 25.1525 0.703618C23.4582 1.24389 22.2154 2.63196 21.9088 4.31927V33.9094C22.2112 35.5468 23.3919 36.885 25.0697 37.4503C26.7475 38.0155 28.4998 37.6664 29.755 36.5069C29.9249 36.3489 30.1113 36.0622 30.2729 35.8087C30.48 35.4887 30.6126 35.285 30.7617 35.1894C31.0393 35.0107 31.4701 34.9567 31.8885 34.9068C32.1412 34.8777 32.3815 34.8486 32.5596 34.7946C34.3368 34.2627 35.7785 32.3551 35.8448 30.4517L35.8531 30.273L36.027 30.2314C37.5888 29.8532 38.7861 28.8807 39.395 27.501C40.0289 26.0589 39.9253 24.3716 39.1092 22.8713L39.0139 22.6926L39.1755 22.5721C40.5384 21.5372 41.3297 19.8707 41.2468 18.2208C41.1722 16.7496 40.439 15.5153 39.1713 14.7382L38.9891 14.6259L39.0843 14.4348C39.7347 13.1132 39.7389 11.5339 39.0843 10.1999C38.4712 8.94481 37.3568 8.06791 36.0229 7.79362L35.8323 7.75621V7.56088C35.8862 5.71981 34.4901 3.70004 32.7875 3.15145C32.4726 3.04756 31.8719 3.01847 31.437 2.99353C30.9233 2.96444 30.7451 2.95197 30.6374 2.88963C30.567 2.84807 30.5297 2.79405 30.3143 2.45326C30.1652 2.21637 29.9373 1.86312 29.8296 1.75922C28.9638 0.911415 27.837 0.462575 26.6563 0.462575L26.6522 0.466731ZM26.561 37.1967C26.2503 37.1967 25.9355 37.1635 25.6206 37.0928C23.9636 36.7313 22.7663 35.497 22.4184 33.7972L22.4101 33.7681V33.7349C22.6006 31.0044 22.4805 28.0288 22.3604 25.1529C22.2278 21.9362 22.0911 18.6032 22.3894 15.5818C22.5054 14.4015 23.2676 13.375 24.3281 12.9636C24.5353 12.8846 24.7797 12.8472 25.0158 12.814C25.6331 12.7267 25.8236 12.656 25.8029 12.3859C25.7946 12.2986 25.7574 12.2612 25.7284 12.2404C25.5005 12.0867 24.8584 12.2737 24.6181 12.3443C23.9594 12.5355 23.4789 12.9054 22.9693 13.2961L22.3976 13.7324V4.22784C22.6586 2.6943 23.8849 1.50571 25.6082 1.13168C27.344 0.75349 29.0466 1.36025 29.9373 2.67768L30.0782 2.88963L29.8586 3.01431C29.7509 3.07665 29.5852 3.15561 29.3946 3.24704C28.8892 3.48808 27.7127 4.05329 27.7086 4.43148C27.7086 4.57278 27.7376 4.61849 27.7458 4.62265C27.8701 4.68914 28.2637 4.49797 28.9182 4.04913C29.0674 3.94523 29.1916 3.86627 29.2579 3.83303C31.3748 2.82729 33.3799 3.68757 34.428 4.98421C35.6418 6.48866 35.6501 8.48765 34.4487 10.0794C33.4627 11.376 32.4105 11.6046 30.9771 11.8539L30.9978 12.1033C33.1065 12.4316 34.6227 11.3178 35.6501 8.70792C35.6501 8.61233 35.6418 8.49597 35.7371 8.40454C35.8406 8.3048 35.9815 8.31311 36.1472 8.33389C37.187 8.46272 38.2061 9.41858 38.7446 10.7651C39.2542 12.0451 39.1796 13.2711 38.5458 14.0483L38.4464 14.173L38.2972 14.1272C36.0726 13.4207 33.6616 14.2478 32.5555 16.093C32.1371 16.7953 31.8927 17.5642 32.0376 17.7429C32.0708 17.7844 32.1951 17.8052 32.4271 17.7429C33.152 15.6317 34.5813 14.4057 36.3667 14.3724C36.3916 14.3724 36.4165 14.3724 36.4413 14.3724C38.2185 14.3724 39.9377 15.561 40.5508 17.2234C41.1681 18.8982 40.5218 20.6853 38.7778 22.1232L38.7074 22.1606C38.5375 22.2188 38.3677 22.1191 37.8623 21.8032C37.274 21.4375 36.2922 20.839 35.8075 20.9513C35.7453 20.9679 35.6956 20.997 35.6542 21.0427L35.6832 21.3461C38.0901 21.8614 39.2293 23.7856 39.2832 25.4937C39.3495 27.5176 38.0362 29.1717 35.9401 29.6995L35.6542 29.7701V29.475C35.6252 27.7545 33.8231 26.0464 32.2862 25.7181C31.5778 25.5726 31.1428 25.5726 30.9896 25.7347C30.9357 25.7887 30.915 25.8802 30.9233 26.0049C32.2655 26.1877 33.6367 26.5243 34.5937 27.9914C35.8986 29.9904 35.2151 32.0933 33.9557 33.2943C32.6963 34.4954 30.5877 35.0855 28.7152 33.7141C28.6738 33.685 28.5868 33.5977 28.4708 33.4855C27.6133 32.6252 27.3357 32.5338 27.2611 32.5587C27.2611 32.5587 27.2239 32.6128 27.2239 32.7956C27.2197 33.1073 27.5429 33.7723 29.7716 34.7572C29.8669 34.7489 29.9829 34.7489 30.074 34.857C30.1734 34.9733 30.1569 35.1271 30.132 35.2684L30.0906 35.3681C29.2331 36.5443 27.9323 37.2051 26.5569 37.2051L26.561 37.1967ZM22.8823 33.7349C23.1972 35.2351 24.2577 36.3198 25.7201 36.6357C27.1949 36.9599 28.6862 36.4071 29.6308 35.1936C29.6183 35.1894 29.6018 35.1853 29.5893 35.177C27.6754 34.3292 26.7516 33.5478 26.764 32.779C26.7682 32.4257 26.88 32.2013 27.0954 32.1141C27.547 31.9312 28.1643 32.4964 28.8105 33.1447C28.9016 33.232 28.9638 33.3026 29.0011 33.3276C30.654 34.5411 32.5265 34.0133 33.645 32.9494C34.6807 31.9644 35.4512 30.14 34.2126 28.2449C33.4089 27.0106 32.3152 26.649 30.7037 26.4454L30.5421 26.4246L30.5049 26.2667C30.4179 25.8968 30.4717 25.6059 30.6623 25.4064C31.0268 25.0324 31.7394 25.1238 32.3898 25.2609C34.0054 25.6017 35.8862 27.3431 36.1016 29.1675C38.1688 28.5233 38.8648 26.8153 38.8234 25.5103C38.7695 23.9477 37.7007 22.1856 35.4305 21.7741L35.2565 21.7409L35.1778 20.9263L35.2151 20.8598C35.3228 20.6728 35.4885 20.5481 35.6998 20.4941C36.3709 20.3196 37.3776 20.9471 38.1108 21.4001C38.2724 21.4998 38.4671 21.6204 38.5789 21.6785C40.642 19.9206 40.4307 18.2374 40.1159 17.3813C39.5773 15.9226 38.0072 14.8379 36.4455 14.8379H36.3833C35.4388 14.8545 33.7237 15.2909 32.8413 18.0006L32.804 18.1128L32.6922 18.1502C32.2158 18.3122 31.8761 18.2748 31.6814 18.0338C31.2298 17.4686 32.0045 16.1138 32.1619 15.8478C33.3509 13.8654 35.9069 12.9511 38.2848 13.6285C38.7156 12.9844 38.7322 11.9745 38.3179 10.9396C37.854 9.77599 36.9674 8.91571 36.114 8.8035C36.1099 8.82844 36.1016 8.85338 36.0892 8.88247C34.9582 11.7667 33.1686 12.9968 30.741 12.5397L30.567 12.5064L30.48 11.4674L30.6913 11.43C32.1868 11.1765 33.1645 11.0061 34.08 9.80092C35.1488 8.38791 35.1447 6.61749 34.0676 5.28344C33.1355 4.1281 31.35 3.36756 29.4609 4.26109C29.4071 4.28602 29.3076 4.35667 29.1833 4.43979C28.5412 4.87616 27.9281 5.25435 27.5263 5.03824C27.3937 4.96759 27.2404 4.80551 27.2404 4.43148C27.2487 3.80809 28.1684 3.31769 29.1916 2.82729C29.2621 2.79405 29.3283 2.7608 29.3905 2.73171C28.5744 1.72182 27.1617 1.27714 25.7076 1.59299C24.5104 1.85481 23.1392 2.69846 22.8658 4.29018V12.7932C23.3339 12.4399 23.8269 12.0908 24.4358 11.9163C24.8708 11.7916 25.5834 11.5797 25.9893 11.8581C26.1012 11.9329 26.242 12.0825 26.271 12.3527C26.3249 13.1049 25.6082 13.2088 25.0862 13.2836C24.875 13.3127 24.6595 13.3459 24.498 13.4083C23.6156 13.749 22.9569 14.6426 22.8575 15.6317C22.5634 18.6239 22.7001 21.9362 22.8326 25.1404C22.9486 28.0163 23.0729 30.992 22.8865 33.7432L22.8823 33.7349Z" fill="#004059"/>
</g>
<g id="Group_3">
<path id="Vector_3" d="M5.63634 30.4682C2.10678 29.6079 0.694131 25.9133 2.40506 22.7631C-0.329109 20.6852 -0.652238 16.4295 2.42577 14.5427C1.03383 11.7416 2.56662 8.18416 5.64463 7.56909C5.61149 5.38723 7.33069 3.13472 9.50146 2.76484C9.90744 2.69419 10.7567 2.8064 10.9597 2.68588C11.026 2.64848 11.5065 1.80067 11.7219 1.58872C14.5472 -1.17497 19.4853 0.541427 20.0446 4.42306V33.6059C19.651 37.5416 14.6922 39.3536 11.7965 36.6813C11.4237 36.3364 11.0508 35.5426 10.8188 35.393C10.4377 35.1436 9.48903 35.1561 8.96291 34.9857C7.12356 34.3955 5.69848 32.3882 5.6322 30.4682H5.63634ZM19.0793 13.2627V4.26929C19.0793 4.14045 18.6195 3.26355 18.4993 3.06823C17.0536 0.703508 13.6234 0.616234 11.9663 2.81056C12.48 3.10147 14.2282 3.76642 14.2365 4.43137C14.249 5.52853 12.7493 4.24851 12.4593 4.09889C8.73092 2.17055 4.82024 6.47192 7.44255 9.93796C8.41608 11.2263 9.46417 11.4008 10.9804 11.6585L10.9265 12.3027C8.2338 12.8139 6.73829 11.0767 5.83933 8.79093C5.76891 8.61638 5.9429 8.52079 5.58663 8.56235C3.59815 8.80755 2.03636 12.3027 3.33716 13.8944C5.54106 13.1962 8.13852 13.9401 9.34818 15.964C9.76659 16.6581 10.5537 18.4202 9.09133 17.9256C6.70101 10.5655 -2.881 17.0363 3.07617 21.9361C3.30816 22.0192 5.71091 19.9745 6.29088 20.9761L6.23703 21.5371C1.7588 22.3517 1.31139 28.3321 5.81862 29.4666C5.96775 27.1102 8.5155 25.0572 10.8395 25.4853L10.9762 26.2084C9.38546 26.3705 7.91067 26.9024 7.10699 28.4069C5.15579 32.0641 9.59674 35.9041 12.8487 33.5186C13.06 33.3649 14.6881 31.4532 14.7088 32.783C14.7254 33.7389 12.7535 34.6407 12.0202 34.9649C11.8669 35.0314 11.7385 34.8693 11.7965 35.2184C13.8803 38.0818 18.3336 37.2839 19.0545 33.7472C18.6568 27.9414 19.6344 21.3086 19.0752 15.6025C18.9095 13.8819 17.4471 12.9759 15.8315 12.8596L15.6658 12.3692C15.7362 11.6793 16.7967 12.0201 17.2027 12.1364C17.9318 12.3484 18.4828 12.8139 19.071 13.2627H19.0793Z" fill="#004059"/>
<path id="Vector_4" d="M15.0692 38.1858C13.8057 38.1858 12.5836 37.7287 11.6432 36.8601C11.4278 36.6606 11.2289 36.3489 11.0508 36.0746C10.9348 35.8918 10.7691 35.6383 10.6987 35.5925C10.5205 35.4762 10.1063 35.4221 9.74172 35.3723C9.44345 35.3307 9.13689 35.2892 8.89662 35.2143C7.06141 34.6242 5.56176 32.646 5.41263 30.6553C3.7887 30.2106 2.54175 29.1675 1.8955 27.7004C1.22438 26.1835 1.3031 24.4173 2.10677 22.8297C0.718978 21.6951 -0.0805577 19.9413 0.00643843 18.2042C0.0851492 16.6457 0.834973 15.3241 2.12749 14.4597C1.50194 13.055 1.53094 11.4009 2.21448 10.0004C2.86488 8.66634 4.02483 7.72295 5.41263 7.38632C5.47891 5.10056 7.2934 2.91039 9.46416 2.54052C9.66301 2.50727 9.94057 2.51143 10.2057 2.51558C10.4087 2.51558 10.7111 2.52389 10.823 2.49896C10.8644 2.44077 10.9307 2.33272 11.0094 2.2122C11.2372 1.85063 11.4236 1.56388 11.5604 1.43089C12.9274 0.0968361 14.9283 -0.339535 16.8008 0.29632C18.6733 0.932176 20.0073 2.50311 20.2765 4.39406L20.2848 33.6102C20.0943 35.5177 18.8307 37.1261 16.9914 37.8284C16.3576 38.0695 15.7072 38.1858 15.0651 38.1858H15.0692ZM9.93229 2.97689C9.78315 2.97689 9.6423 2.98104 9.54287 2.99767C7.52539 3.34261 5.85175 5.43304 5.88075 7.56502V7.76035L5.69433 7.79775C4.36453 8.06373 3.25015 8.94063 2.63704 10.1999C1.98249 11.5381 1.98249 13.1215 2.63704 14.4348L2.73232 14.6259L2.55004 14.7381C1.28652 15.5153 0.549128 16.7496 0.478703 18.2208C0.39585 19.8707 1.19124 21.5372 2.55004 22.572L2.7116 22.6926L2.61632 22.8713C1.80022 24.3757 1.69251 26.063 2.33048 27.501C2.93945 28.8807 4.13668 29.8532 5.69847 30.2314L5.87247 30.273L5.88075 30.4517C5.94289 32.3135 7.33483 34.2045 9.0499 34.7572C9.24874 34.8195 9.53459 34.8611 9.81215 34.8985C10.2678 34.9608 10.6945 35.019 10.9638 35.1936C11.1088 35.2892 11.2455 35.4928 11.4526 35.8128C11.6142 36.0663 11.8006 36.3531 11.9705 36.5068C13.263 37.6996 15.1272 38.0362 16.8423 37.3837C18.5408 36.7354 19.6593 35.3141 19.8333 33.5811L19.825 4.42315C19.5806 2.74 18.3668 1.31452 16.66 0.732692C14.9366 0.146708 13.1553 0.529052 11.9001 1.7592C11.7923 1.86726 11.5645 2.22051 11.4154 2.45324C11.1958 2.79818 11.1627 2.84805 11.0881 2.88961C10.9224 2.9852 10.6407 2.9852 10.2057 2.97689C10.1146 2.97689 10.0234 2.97689 9.93643 2.97689H9.93229ZM15.1521 37.1967C13.7767 37.1967 12.4759 36.5359 11.6184 35.3598L11.5769 35.2601C11.5521 35.1229 11.5355 34.965 11.6349 34.8486C11.7261 34.7447 11.8462 34.7364 11.9042 34.7489C14.162 33.7639 14.4892 33.099 14.4809 32.7873C14.4809 32.5961 14.4354 32.5462 14.4354 32.5462C14.3525 32.5338 14.0915 32.6169 13.234 33.4813C13.118 33.5977 13.031 33.6808 12.9896 33.7099C11.2041 35.0232 9.14103 34.512 7.88995 33.4231C6.62643 32.3218 5.83104 30.3104 6.90399 28.2989C7.59582 27.0023 8.84276 26.25 10.7028 26.009L10.6448 25.6931C9.66715 25.5643 8.59834 25.8843 7.69524 26.5908C6.73414 27.343 6.12103 28.4236 6.05474 29.4833L6.03817 29.7659L5.76475 29.6953C3.66442 29.1675 2.35119 27.5176 2.42162 25.4895C2.47961 23.7814 3.61471 21.8572 6.0216 21.3419L6.0506 21.0385C6.00917 20.9928 5.95946 20.9637 5.89732 20.9471C5.41263 20.8349 4.43081 21.4333 3.84255 21.799C3.33715 22.1107 3.15901 22.2146 2.99745 22.1565L2.92702 22.1191C1.18296 20.6811 0.532558 18.8982 1.14982 17.2234C1.75879 15.561 3.48214 14.3683 5.26349 14.3683C5.28835 14.3683 5.3132 14.3683 5.33806 14.3683C7.12355 14.4015 8.55277 15.6275 9.2736 17.7387C9.50559 17.8011 9.62573 17.7803 9.66301 17.7387C9.80801 17.56 9.56359 16.787 9.14518 16.0888C8.03908 14.2436 5.62391 13.4166 3.40343 14.1231L3.2543 14.1688L3.15487 14.0441C2.52104 13.2669 2.44647 12.0409 2.95602 10.7609C3.49457 9.41025 4.51367 8.45855 5.55348 8.32971C5.71504 8.30893 5.85589 8.30062 5.95946 8.40036C6.05889 8.49179 6.0506 8.60816 6.04646 8.66219C7.07384 11.3137 8.5942 12.4233 10.6987 12.0991L10.7194 11.8498C9.28189 11.6004 8.2255 11.3718 7.24783 10.0752C6.0216 8.45439 6.04646 6.43046 7.31412 4.9177C8.40364 3.6169 10.446 2.79403 12.5546 3.88703C12.6126 3.91613 12.712 3.98678 12.8363 4.0699C13.611 4.61016 13.8761 4.6725 13.9507 4.62679C13.959 4.62263 13.9921 4.57276 13.988 4.43146C13.988 4.04912 12.8073 3.48391 12.3019 3.24287C12.1113 3.15144 11.9498 3.07247 11.8379 3.01014L11.6059 2.87715L11.7675 2.66519C12.6085 1.54725 13.9465 0.911397 15.3675 0.994515C16.7594 1.06517 17.9691 1.77167 18.6816 2.93948C18.6899 2.9478 19.2947 4.01171 19.2947 4.26522V13.7324L18.723 13.296C18.2135 12.9054 17.7288 12.5355 17.1281 12.361C16.834 12.2737 16.1919 12.0908 15.964 12.2404C15.9392 12.2571 15.9102 12.2861 15.8936 12.3485L15.993 12.6394C17.8531 12.8264 19.1414 13.9651 19.2989 15.5776C19.593 18.6031 19.4604 21.932 19.3279 25.1487C19.2119 28.0246 19.0917 30.9961 19.2782 33.7307V33.7639V33.793C18.9302 35.4969 17.7329 36.7271 16.0759 37.0887C15.761 37.1593 15.4462 37.1926 15.1355 37.1926L15.1521 37.1967ZM12.0823 35.1977C13.0269 36.4113 14.5141 36.9598 15.993 36.6398C17.4554 36.3198 18.5118 35.2351 18.8307 33.739C18.6443 30.9878 18.7645 28.0163 18.8846 25.1404C19.013 21.9362 19.1497 18.6239 18.8556 15.6317C18.6899 13.9111 17.182 13.1963 15.8273 13.1007L15.674 13.0924L15.442 12.4067V12.3568C15.4752 12.0867 15.616 11.9412 15.7279 11.8622C16.1339 11.588 16.8464 11.7957 17.2275 11.9038C17.8821 12.095 18.3833 12.4399 18.8515 12.7973V4.27353C18.8266 4.16548 18.4455 3.41742 18.3046 3.193C17.6708 2.15817 16.602 1.53063 15.3633 1.46829C14.2034 1.40595 13.089 1.88388 12.335 2.73584C12.393 2.76494 12.4552 2.79403 12.5215 2.82727C13.5447 3.31767 14.4685 3.80807 14.4727 4.43146C14.4727 4.80965 14.3194 4.97588 14.1868 5.04654C13.7891 5.26264 13.2009 4.89277 12.5877 4.46055C12.4883 4.3899 12.4055 4.33172 12.3599 4.30678C10.4791 3.33845 8.66048 4.06574 7.6911 5.22524C6.84185 6.24344 6.31573 8.05126 7.63724 9.79675C8.55277 11.0061 9.53045 11.1724 11.0094 11.4259L11.2207 11.4633V11.6794L11.1502 12.5023L10.9762 12.5355C8.56106 12.9927 6.76314 11.7625 5.62805 8.88245C5.61562 8.85336 5.61148 8.82842 5.60319 8.80349C4.7498 8.91985 3.86327 9.77597 3.39929 10.9438C2.98916 11.9745 3.00573 12.9885 3.43243 13.6285C5.81447 12.9469 8.36635 13.8654 9.5553 15.8478C9.71687 16.1137 10.4874 17.4727 10.0359 18.0338C9.84115 18.2748 9.50145 18.3122 9.02504 18.1501L8.91319 18.1127L8.8759 18.0005C7.99766 15.2909 6.27845 14.8587 5.33806 14.8379C5.31735 14.8379 5.29249 14.8379 5.27178 14.8379C3.7017 14.8379 2.12749 15.9226 1.59308 17.3855C1.27824 18.2416 1.07111 19.9247 3.1383 21.6785C3.24601 21.6245 3.44071 21.504 3.60642 21.4001C4.33968 20.9471 5.35049 20.3195 6.01746 20.4941C6.22459 20.5481 6.39444 20.6728 6.50215 20.8598L6.53944 20.9263L6.46072 21.7409L6.28673 21.7741C4.01655 22.1855 2.94774 23.9477 2.89388 25.5103C2.84831 26.8194 3.54843 28.5316 5.62391 29.1716C5.77718 28.062 6.4193 27.0023 7.41354 26.2251C8.46578 25.3981 9.72929 25.0448 10.8892 25.2609L11.0467 25.29L11.2579 26.4246L11.0052 26.4495C9.14518 26.6407 7.9728 27.2973 7.31826 28.5233C6.3033 30.4267 7.15669 32.1639 8.20065 33.0699C9.22803 33.9634 11.026 34.5743 12.7162 33.3317C12.7493 33.3068 12.8156 33.2403 12.9026 33.1489C13.5488 32.5005 14.162 31.9353 14.6177 32.1182C14.8331 32.2055 14.9408 32.4299 14.9491 32.7831C14.9615 33.552 14.0377 34.3374 12.1238 35.1811C12.1072 35.1894 12.0948 35.1936 12.0823 35.1977Z" fill="#004059"/>
</g>
<g id="Group_4">
<path id="Vector_5" d="M12.8032 17.7719L12.6831 17.1527C13.0021 16.4794 14.568 17.0737 15.0858 17.3397C17.7537 18.6987 17.8366 22.7465 15.3095 24.3091C14.8041 24.6208 12.4387 25.4603 12.621 24.3756C12.6831 23.9933 14.7089 23.7647 15.4255 22.9626C17.3519 20.8099 15.5374 17.6805 12.8074 17.7636L12.8032 17.7719Z" fill="#004059"/>
<path id="Vector_6" d="M13.2423 25.1487C13.002 25.1487 12.7907 25.1071 12.6416 25.0032C12.5215 24.9242 12.3268 24.7289 12.3931 24.3424C12.4469 24.0307 12.8487 23.8977 13.5157 23.6733C14.133 23.4655 14.8994 23.2078 15.2556 22.813C16.0303 21.9444 16.2085 20.814 15.7362 19.7875C15.2184 18.6654 14.0584 17.9506 12.8197 18.0046H12.6209L12.4469 17.1236L12.48 17.0529C12.567 16.8742 12.7203 16.7412 12.9233 16.6747C13.7394 16.3921 15.1852 17.1236 15.2018 17.136C16.5067 17.801 17.3228 19.1267 17.385 20.6852C17.4513 22.2644 16.7056 23.7315 15.4379 24.517C15.1479 24.6957 14.0418 25.1528 13.2464 25.1528L13.2423 25.1487ZM12.9979 17.5392C14.3608 17.5724 15.5829 18.362 16.1546 19.5922C16.7097 20.7933 16.5026 22.1148 15.5995 23.1247C15.1604 23.6151 14.3318 23.8936 13.6607 24.118C13.3459 24.226 12.9067 24.3715 12.8363 24.4588C12.828 24.5668 12.8736 24.6001 12.8985 24.6167C13.263 24.8619 14.7419 24.3881 15.1852 24.1138C16.3079 23.4198 16.9666 22.1148 16.9086 20.7018C16.8506 19.3137 16.1297 18.1376 14.9781 17.5516C14.4644 17.2898 13.5033 16.974 13.0642 17.1194C12.9979 17.1444 12.9565 17.1734 12.9275 17.2025L12.9937 17.5392H12.9979Z" fill="#004059"/>
</g>
<g id="Group_5">
<path id="Vector_7" d="M10.9183 7.42801C11.2041 7.34489 12.2522 8.29244 12.8612 8.38803C13.2382 8.45037 13.8927 8.4379 14.2697 8.36309C15.1273 8.18439 16.0428 6.71319 16.4446 7.99737C15.4711 9.43532 13.379 9.74286 11.8504 9.07791C11.287 8.83271 10.1685 8.04309 10.9142 7.42801H10.9183Z" fill="#004059"/>
<path id="Vector_8" d="M13.5116 9.64309C12.8984 9.64309 12.2895 9.51841 11.7633 9.28984C11.3449 9.10698 10.533 8.60411 10.446 7.98904C10.417 7.79371 10.4543 7.50695 10.7732 7.24513L10.8561 7.19941C11.0922 7.12876 11.3615 7.29915 11.8669 7.62331C12.2108 7.83942 12.6374 8.11371 12.9026 8.15527C13.263 8.2093 13.8844 8.20099 14.2282 8.13034C14.4768 8.08046 14.7544 7.88098 15.0236 7.68981C15.4213 7.40721 15.7983 7.14954 16.1629 7.27006C16.3949 7.34902 16.5606 7.56097 16.6724 7.92254L16.7056 8.03059L16.6434 8.12618C15.9309 9.17763 14.7088 9.64309 13.5116 9.64309ZM11.0052 7.66903C10.9017 7.77708 10.9017 7.86436 10.91 7.9267C10.9555 8.26333 11.5438 8.68723 11.9498 8.86593C13.2961 9.45192 15.2266 9.26906 16.1919 7.9641C16.138 7.82695 16.0759 7.73968 16.0137 7.72306C15.8729 7.67734 15.5497 7.90176 15.2929 8.08047C14.9863 8.30073 14.6632 8.52515 14.3194 8.5958C13.9258 8.67476 13.2381 8.68723 12.828 8.62489C12.4676 8.56671 12.016 8.27995 11.6183 8.02644C11.4236 7.90176 11.1378 7.7189 11.0052 7.67319V7.66903Z" fill="#004059"/>
</g>
</g>
</g>
</svg>
