<svg preserveAspectRatio="none" overflow="visible" style="display: block;" width="168.409" height="170.657" viewBox="0 0 168.409 170.657" fill="none" xmlns="http://www.w3.org/2000/svg">
<g id="Group">
<path id="Vector" d="M163.411 90.7612H4.99644C2.26097 90.7612 0.0202785 88.5141 0.00202851 85.7546C0.00202851 85.5714 2.96699e-07 85.3903 2.96699e-07 85.2072V85.1578C2.96699e-07 82.3921 2.24069 80.143 4.99036 80.143H163.417C166.168 80.143 168.407 82.4148 168.409 85.2072C168.409 85.3903 168.409 85.5735 168.407 85.7566C168.389 88.5161 166.148 90.7632 163.413 90.7632L163.411 90.7612ZM4.99239 80.5278C2.45158 80.5278 0.381222 82.6041 0.381222 85.1578V85.2072C0.381222 85.3883 0.381222 85.5714 0.38325 85.7525C0.399472 88.3021 2.46983 90.3764 4.99847 90.3764H163.413C165.941 90.3764 168.012 88.3021 168.028 85.7525C168.028 85.5714 168.03 85.3883 168.03 85.2072C168.03 82.6267 165.959 80.5278 163.419 80.5278H4.99239Z" fill="#21B573"/>
<path id="Vector_2" d="M152.712 50.486H15.697C13.8254 50.486 12.1525 49.5065 11.2177 47.8644C10.2768 46.2078 10.2788 44.2282 11.2238 42.5676L11.2805 42.4668C12.1951 40.8637 13.9106 39.8698 15.7538 39.8698H152.688C154.513 39.8698 156.214 40.8658 157.128 42.4688L157.199 42.5943C158.138 44.2406 158.14 46.2078 157.203 47.8561C156.267 49.5044 154.588 50.4881 152.712 50.4881V50.486ZM15.7538 40.2526C14.0444 40.2526 12.4566 41.1745 11.609 42.6602L11.5522 42.761C10.6762 44.3003 10.6742 46.1358 11.5482 47.673C12.4141 49.1937 13.9653 50.1032 15.6991 50.1032H152.714C154.452 50.1032 156.007 49.1916 156.877 47.6627C157.745 46.1358 157.745 44.3126 156.875 42.7857L156.804 42.6602C155.958 41.1765 154.381 40.2546 152.692 40.2546H15.7538V40.2526Z" fill="#00B8FF"/>
<path id="Vector_3" d="M152.373 131.036H16.0336C14.2026 131.036 12.4952 130.051 11.5766 128.466L11.5198 128.365C10.5607 126.705 10.5485 124.721 11.4874 123.056C12.4201 121.404 14.0971 120.418 15.9769 120.418H152.434C154.312 120.418 155.991 121.404 156.924 123.056C157.863 124.721 157.85 126.707 156.891 128.365L156.834 128.466C155.916 130.051 154.208 131.036 152.377 131.036H152.373ZM15.9769 120.803C14.235 120.803 12.6817 121.717 11.8179 123.248C10.9459 124.791 10.9581 126.633 11.8483 128.172L11.9051 128.273C12.7547 129.74 14.3384 130.654 16.0357 130.654H152.375C154.073 130.654 155.656 129.742 156.506 128.273L156.563 128.174C157.453 126.635 157.465 124.793 156.593 123.25C155.729 121.719 154.174 120.805 152.434 120.805H15.9769V120.803Z" fill="#21B573"/>
<path id="Vector_4" d="M135.833 151.174H32.5742C31.3292 151.174 30.1105 150.709 29.1473 149.861L29.0378 149.764C27.377 148.301 26.8255 146.089 27.5981 143.99C28.3788 141.871 30.2443 140.554 32.4668 140.554H135.94C138.163 140.554 140.028 141.871 140.809 143.99C141.581 146.089 141.03 148.301 139.369 149.764L139.26 149.861C138.296 150.707 137.078 151.172 135.833 151.172V151.174ZM32.4668 140.941C30.4065 140.941 28.6768 142.161 27.9549 144.126C27.2391 146.071 27.7501 148.12 29.2872 149.474L29.3947 149.569C30.2909 150.355 31.4184 150.787 32.5742 150.787H135.833C136.989 150.787 138.116 150.355 139.012 149.569L139.122 149.474C140.659 148.12 141.17 146.071 140.454 144.126C139.73 142.161 138.002 140.941 135.942 140.941H32.4688H32.4668Z" fill="#21B573"/>
<path id="Vector_5" d="M160.782 70.6236H7.60417C5.99817 70.6236 4.50978 69.8848 3.52428 68.5967C2.53878 67.3085 2.20014 65.6643 2.59758 64.0839L2.62597 63.9687C3.212 61.6351 5.27831 60.0054 7.65283 60.0054H160.758C163.129 60.0054 165.197 61.6413 165.787 63.9831L165.813 64.0839C166.209 65.6602 165.87 67.3002 164.883 68.5884C163.891 69.8828 162.397 70.6256 160.782 70.6256V70.6236ZM7.6508 60.3902C5.45067 60.3902 3.53645 61.9006 2.993 64.0633L2.96461 64.1786C2.59758 65.6437 2.90986 67.1686 3.82439 68.36C4.73892 69.5535 6.11578 70.2367 7.60619 70.2367H160.785C162.281 70.2367 163.666 69.5494 164.585 68.3497C165.499 67.1583 165.811 65.6375 165.446 64.1765L165.42 64.0757C164.873 61.9047 162.956 60.3881 160.758 60.3881H7.6508V60.3902Z" fill="#00B8FF"/>
<path id="Vector_6" d="M160.634 110.899H7.7745C5.41822 110.899 3.35394 109.275 2.75372 106.952C2.74561 106.919 2.73547 106.884 2.72736 106.849C2.32181 105.273 2.65436 103.624 3.63986 102.33C4.63144 101.028 6.12997 100.281 7.75017 100.281H160.661C162.281 100.281 163.778 101.028 164.769 102.33C165.755 103.624 166.087 105.273 165.682 106.851C165.671 106.886 165.663 106.919 165.655 106.952C165.053 109.277 162.989 110.899 160.632 110.899H160.634ZM7.74814 100.665C6.24556 100.665 4.85856 101.359 3.93794 102.565C3.02544 103.764 2.71722 105.291 3.09236 106.752C3.10047 106.787 3.10858 106.818 3.11872 106.851C3.67636 109.008 5.59058 110.512 7.7745 110.512H160.634C162.818 110.512 164.733 109.008 165.29 106.853C165.298 106.82 165.306 106.785 165.317 106.748C165.692 105.289 165.384 103.762 164.469 102.563C163.55 101.355 162.161 100.663 160.661 100.663H7.74814V100.665Z" fill="#21B573"/>
<path id="Vector_7" d="M136.484 30.3484H31.9233C29.711 30.3484 27.8495 29.0396 27.0648 26.9345C26.2861 24.8479 26.8214 22.6378 28.4639 21.1665C28.4984 21.1336 28.5349 21.1027 28.5734 21.0698C29.5386 20.2055 30.7675 19.7302 32.0328 19.7302H136.38C137.644 19.7302 138.872 20.2055 139.84 21.0718C139.876 21.1027 139.913 21.1356 139.949 21.1686C141.588 22.6399 142.125 24.85 141.346 26.9345C140.561 29.0396 138.698 30.3484 136.488 30.3484H136.484ZM32.0308 20.115C30.8587 20.115 29.7191 20.5574 28.8208 21.3599C28.7843 21.3929 28.7498 21.4237 28.7154 21.4546C27.1945 22.8189 26.6977 24.8664 27.4196 26.7987C28.1476 28.7495 29.8732 29.9636 31.9233 29.9636H136.484C138.534 29.9636 140.259 28.7515 140.987 26.7987C141.709 24.8664 141.212 22.8189 139.694 21.4546C139.657 21.4217 139.623 21.3908 139.588 21.3599C138.69 20.5553 137.55 20.1129 136.378 20.1129H32.0308V20.115Z" fill="#00B8FF"/>
<path id="Vector_8" d="M77.5017 90.7612H4.99644C2.26097 90.7612 0.0202785 88.5141 0.00202851 85.7546C0.00202851 85.5714 2.96699e-07 85.3903 2.96699e-07 85.2072V85.1578C2.96699e-07 82.3921 2.24069 80.143 4.99036 80.143H77.5057C80.2574 80.143 82.4961 82.4148 82.4961 85.2072C82.4961 85.3903 82.4961 85.5735 82.4961 85.7546C82.4778 88.5141 80.2371 90.7612 77.5017 90.7612ZM4.99239 80.5278C2.45158 80.5278 0.381222 82.6041 0.381222 85.1578V85.2072C0.381222 85.3883 0.381222 85.5714 0.38325 85.7525C0.399472 88.3021 2.46983 90.3764 4.99847 90.3764H77.5037C80.0303 90.3764 82.1007 88.3021 82.1189 85.7525C82.1189 85.5714 82.1189 85.3883 82.1189 85.2072C82.1189 82.6267 80.0506 80.5278 77.5078 80.5278H4.99239Z" fill="#004059"/>
<path id="Vector_9" d="M83.3234 50.486H15.697C13.8254 50.486 12.1525 49.5065 11.2177 47.8644C10.2748 46.2078 10.2788 44.2282 11.2238 42.5676L11.2805 42.4668C12.1951 40.8637 13.9106 39.8698 15.7538 39.8698H83.2991C85.1241 39.8698 86.8254 40.8658 87.7399 42.4688L87.8109 42.5943C88.7498 44.2406 88.7518 46.2078 87.815 47.8561C86.8781 49.5044 85.1991 50.4881 83.3234 50.4881V50.486ZM15.7538 40.2526C14.0444 40.2526 12.4566 41.1745 11.609 42.6602L11.5523 42.761C10.6763 44.3003 10.6742 46.1358 11.5482 47.673C12.4141 49.1937 13.9653 50.1032 15.6991 50.1032H83.3254C85.0633 50.1032 86.6186 49.1916 87.4885 47.6627C88.3564 46.1358 88.3564 44.3126 87.4865 42.7857L87.4155 42.6602C86.5699 41.1765 84.9923 40.2546 83.3031 40.2546H15.7538V40.2526Z" fill="#004059"/>
<path id="Vector_10" d="M83.5363 131.036H16.0336C14.2026 131.036 12.4952 130.051 11.5766 128.466L11.5198 128.365C10.5607 126.705 10.5485 124.721 11.4874 123.056C12.4201 121.404 14.0971 120.418 15.9769 120.418H83.5951C85.4729 120.418 87.1519 121.404 88.0846 123.056C89.0235 124.721 89.0113 126.707 88.0522 128.365L87.9954 128.466C87.0768 130.051 85.3694 131.036 83.5384 131.036H83.5363ZM15.9769 120.803C14.235 120.803 12.6817 121.717 11.8179 123.248C10.9459 124.791 10.9581 126.633 11.8483 128.172L11.9051 128.273C12.7547 129.74 14.3384 130.654 16.0357 130.654H83.5384C85.2356 130.654 86.8173 129.742 87.6689 128.273L87.7257 128.172C88.6159 126.633 88.6261 124.791 87.7561 123.248C86.8923 121.717 85.337 120.803 83.5972 120.803H15.9769Z" fill="#004059"/>
<path id="Vector_11" d="M91.2257 151.174H32.5742C31.3292 151.174 30.1105 150.709 29.1473 149.861L29.0378 149.764C27.377 148.301 26.8255 146.089 27.5981 143.99C28.3788 141.871 30.2443 140.554 32.4668 140.554H91.3331C93.5556 140.554 95.4211 141.871 96.1998 143.99C96.9724 146.089 96.4208 148.301 94.7601 149.764L94.6486 149.861C93.6854 150.707 92.4687 151.172 91.2236 151.172L91.2257 151.174ZM32.4668 140.941C30.4065 140.941 28.6768 142.161 27.9549 144.126C27.2391 146.071 27.7501 148.12 29.2872 149.474L29.3947 149.569C30.2909 150.355 31.4184 150.787 32.5742 150.787H91.2257C92.3795 150.787 93.5089 150.355 94.4052 149.569L94.5147 149.474C96.0518 148.12 96.5628 146.071 95.847 144.126C95.1231 142.161 93.3954 140.941 91.3352 140.941H32.4688H32.4668Z" fill="#004059"/>
<path id="Vector_12" d="M77.6254 70.6236H7.60417C5.99817 70.6236 4.50978 69.8848 3.52428 68.5967C2.53878 67.3085 2.20014 65.6643 2.59758 64.0839L2.62597 63.9687C3.212 61.6351 5.27831 60.0054 7.65283 60.0054H77.6031C79.9756 60.0054 82.0419 61.6413 82.6319 63.9831L82.6401 64.016C82.6461 64.0407 82.6522 64.0654 82.6583 64.0901C83.0517 65.6622 82.7131 67.3023 81.7276 68.5905C80.736 69.8848 79.2415 70.6277 77.6274 70.6277L77.6254 70.6236ZM7.6508 60.3902C5.45067 60.3902 3.53645 61.9006 2.993 64.0633L2.96461 64.1786C2.59758 65.6437 2.90986 67.1686 3.82439 68.36C4.73892 69.5535 6.11578 70.2367 7.60619 70.2367H77.6294C79.1259 70.2367 80.5109 69.5494 81.4295 68.3497C82.342 67.1583 82.6563 65.6355 82.2913 64.1765L82.2649 64.0757C81.7194 61.9047 79.8012 60.3881 77.6031 60.3881H7.6508V60.3902Z" fill="#004059"/>
<path id="Vector_13" d="M77.4773 110.899H7.7745C5.41822 110.899 3.35394 109.275 2.75372 106.952C2.74561 106.919 2.73547 106.884 2.72736 106.849C2.32181 105.273 2.65436 103.624 3.63986 102.33C4.63144 101.028 6.12997 100.281 7.75017 100.281H77.5037C79.1239 100.281 80.6224 101.028 81.614 102.33C82.5995 103.624 82.932 105.273 82.5265 106.851C82.5184 106.886 82.5082 106.921 82.5001 106.956C81.8999 109.277 79.8356 110.901 77.4794 110.901L77.4773 110.899ZM7.74814 100.665C6.24556 100.665 4.85856 101.359 3.93794 102.565C3.02544 103.764 2.71722 105.291 3.09236 106.752C3.10047 106.787 3.10858 106.818 3.11872 106.851C3.67636 109.008 5.59058 110.512 7.7745 110.512H77.4773C79.6612 110.512 81.5755 109.008 82.1311 106.853C82.1412 106.818 82.1493 106.785 82.1574 106.752C82.5346 105.289 82.2264 103.762 81.3119 102.563C80.3933 101.355 79.0042 100.663 77.5017 100.663H7.74814V100.665Z" fill="#004059"/>
<path id="Vector_14" d="M73.1906 170.657C71.4569 170.657 69.7028 170.604 67.9813 170.497C64.7956 170.299 63.4187 167.758 63.4877 165.478C63.5566 163.173 65.0998 160.693 68.3219 160.693H100.085C103.307 160.693 104.85 163.173 104.919 165.478C104.988 167.756 103.611 170.299 100.426 170.497C98.6636 170.606 74.6729 170.657 73.1886 170.657H73.1906ZM68.3219 161.078C65.3512 161.078 63.9297 163.364 63.8669 165.488C63.804 167.587 65.0714 169.929 68.0036 170.11C69.7191 170.217 71.4629 170.27 73.1886 170.27C75.5226 170.27 98.7386 170.213 100.401 170.11C103.334 169.929 104.603 167.587 104.54 165.488C104.475 163.364 103.054 161.078 100.085 161.078H68.3219Z" fill="#004059"/>
<path id="Vector_15" d="M73.1906 9.96385C71.4548 9.96385 69.7028 9.91035 67.9813 9.80334C64.7956 9.6058 63.4187 7.06442 63.4877 4.78438C63.5566 2.47965 65.0998 0 68.3219 0H100.085C103.307 0 104.85 2.47965 104.919 4.78438C104.988 7.06236 103.611 9.6058 100.426 9.80334C98.6656 9.91241 74.6729 9.96385 73.1886 9.96385H73.1906ZM68.3219 0.386866C65.3512 0.386866 63.9297 2.67308 63.8669 4.79878C63.804 6.89774 65.0714 9.23951 68.0036 9.42059C69.717 9.5276 71.4629 9.5811 73.1886 9.5811C75.5226 9.5811 98.7386 9.52348 100.401 9.42059C103.334 9.23951 104.603 6.89774 104.54 4.79878C104.475 2.67514 103.054 0.386866 100.085 0.386866H68.3219Z" fill="#004059"/>
<path id="Vector_16" d="M90.7775 30.3484H31.9253C29.713 30.3484 27.8515 29.0396 27.0668 26.9345C26.2881 24.8479 26.8234 22.6378 28.4659 21.1665C28.5004 21.1336 28.5369 21.1006 28.5754 21.0698C29.5407 20.2055 30.7695 19.7302 32.0348 19.7302H90.6741C91.9394 19.7302 93.1683 20.2055 94.1335 21.0718C94.17 21.1027 94.2065 21.1356 94.243 21.1686C95.8835 22.6399 96.4188 24.85 95.6401 26.9345C94.8554 29.0396 92.9939 30.3484 90.7816 30.3484H90.7775ZM32.0308 20.115C30.8587 20.115 29.7191 20.5574 28.8208 21.3599C28.7843 21.3929 28.7498 21.4237 28.7154 21.4546C27.1945 22.8189 26.6977 24.8664 27.4196 26.7987C28.1476 28.7495 29.8732 29.9636 31.9233 29.9636H90.7755C92.8256 29.9636 94.5512 28.7515 95.2792 26.7987C96.0011 24.8664 95.5043 22.8189 93.9855 21.4546C93.949 21.4217 93.9145 21.3908 93.88 21.3599C92.9817 20.5553 91.8421 20.1129 90.6701 20.1129H32.0308V20.115Z" fill="#004059"/>
</g>
</svg>
